PathFileType	4	(X/Y/Z)	16_2_99_p1_0-146_filt_butterworth.trc
DataRate	CameraRate	NumFrames	NumMarkers	Units	OrigDataRate	OrigDataStartFrame	OrigNumFrames
60.0	60.0	5	27	m	60.0	91	146
Frame#	Time	RHip			RKnee			RAnkle			RBigToe			RSmallToe			RHeel			LHip			LKnee			LAnkle			LBigToe			LSmallToe			LHeel			Neck			Head			Nose			RShoulder			RElbow			RWrist			RThumb			RIndex			RPinky			LShoulder			LElbow			LWrist			LThumb			LIndex			LPinky			
		X1	Y1	Z1	X2	Y2	Z2	X3	Y3	Z3	X4	Y4	Z4	X5	Y5	Z5	X6	Y6	Z6	X7	Y7	Z7	X8	Y8	Z8	X9	Y9	Z9	X10	Y10	Z10	X11	Y11	Z11	X12	Y12	Z12	X13	Y13	Z13	X14	Y14	Z14	X15	Y15	Z15	X16	Y16	Z16	X17	Y17	Z17	X18	Y18	Z18	X19	Y19	Z19	X20	Y20	Z20	X21	Y21	Z21	X22	Y22	Z22	X23	Y23	Z23	X24	Y24	Z24	X25	Y25	Z25	X26	Y26	Z26	X27	Y27	Z27	
91	1.5166666666666666	0.3037233125347188	0.4928149768549494	0.5203183980521403	0.2974766504417422	0.630198872636121	0.9661907109974274	0.25848530634953115	0.7391423388735746	1.3806159854622349	0.24191173401876176	0.45218121177964865	1.3646022598591665	0.3120228301787937	0.48250116075958305	1.3741812868671708	0.23701411204938733	0.7976951031191621	1.4282880630627224	0.09225831907102565	0.48710086597054875	0.502170084009277	0.0753235392067246	0.6230068343959767	0.9403529948529374	0.08991141212508436	0.7056614085011681	1.3389528338675976	0.06560084411283493	0.4332690017616764	1.3482792303389384	0.015324943608550225	0.5092842282035078	1.3572932715818915	0.11202150481231224	0.8039959477592357	1.4322596623586306	0.24483726599083905	0.4487728947536386	-0.1379562359436045	0.2700794121394014	0.36154255852378275	-0.3833919839156374	0.25055466494704076	0.31151808778419054	-0.24189069770357707	0.40377287115327964	0.46481864288501396	-0.03252348918249402	0.46301186262497224	0.5242608691173787	0.24628428786127943	0.48119496551934504	0.35970889958828695	0.4792122475940233	0.46505126165749566	0.1898988826513114	0.5202006326128388	0.4830161646306703	0.22037879467589894	0.5481646534143978	0.4821651549578041	0.3358615222530378	0.5955510189928594	0.05841625517259043	0.4736457671365751	-0.06198881311677835	-0.06957857081551269	0.5206325593818967	0.1919800453738921	-0.07474156242894958	0.34309807752555604	0.43235934247638724	-0.03564591916814428	0.2933475569098843	0.5386702488242895	-0.0652121913791065	0.2871288015204544	0.548547103136145	-0.09005418111014085	0.3210264447424756	0.5563169473835248
92	1.5333333333333334	0.30357353184138475	0.49264516813088755	0.5211700427225672	0.297468882038985	0.6301929378014627	0.9662451360360811	0.25848024027667404	0.7392000550368871	1.380546693823847	0.24135780406986815	0.45075073182531883	1.364101911561798	0.31223243644121457	0.48227970416619587	1.3753739220064372	0.23704932907821555	0.7978136875967999	1.4283625186723905	0.09218317828318731	0.48839828090676896	0.5028565130214704	0.07533808516184141	0.6229349034399281	0.940351279302014	0.09122784964770411	0.7063480330273584	1.3388378768832299	0.06559273165175217	0.4332284501836795	1.3482285492236907	0.0157121366613513	0.5088843455339688	1.3571471626073586	0.1122652725822036	0.8041241611138226	1.429616523942628	0.2447978451433047	0.4487220732716472	-0.1380037617150075	0.26962315231257095	0.36263641661134005	-0.38432524103957766	0.24897143368096514	0.31503096081750676	-0.24242723987428888	0.4037458869228525	0.46448734782575535	-0.03246109486640292	0.4630951131486698	0.5224372185662137	0.24526718135241982	0.47931412847785615	0.35508367093246046	0.4784482445121084	0.4614869993244299	0.18769083352809113	0.520122712996125	0.47822642563810125	0.2138311836578486	0.544712468771717	0.4831285294873125	0.3324890374920886	0.5937251598531115	0.05748680892994847	0.4730155840195176	-0.06196872412472781	-0.06946647307241172	0.520624780569463	0.19113428394985338	-0.07525344852648204	0.3425122464454959	0.4322777864763028	-0.032604247988459	0.2867342103975339	0.5372188389608208	-0.06532107416847412	0.2822666570039427	0.5474770770568964	-0.08801986700111264	0.31974161604112694	0.5557100161447024
93	1.55	0.30342951382449035	0.4926705403589419	0.5221295230241682	0.29746965747613435	0.630193364488794	0.9663100303240505	0.2584669453345063	0.7392265589795444	1.3805505991931113	0.24029247324414205	0.4484304399527807	1.363554257212377	0.3122347086924849	0.4821801218450053	1.375861992529632	0.23706134213161645	0.7978302791999405	1.4282878439733926	0.09214177897867229	0.49195599974421245	0.5040745765220785	0.07542131470087957	0.6228084545557516	0.9403579173414403	0.0931584222235209	0.7088660084933427	1.3391243169130183	0.06556968745896892	0.4332307937473028	1.348258064190381	0.015880409260715846	0.5089187737518867	1.35716277946056	0.11272362117445685	0.8055994294099169	1.4291918641472892	0.24480166763222957	0.44851565307348273	-0.13792653373850705	0.26914836815507504	0.36223875003841727	-0.385353692475325	0.24684133541494827	0.3167901085915188	-0.24279994886673792	0.4036880259295381	0.46418917218348577	-0.032380958905314665	0.4630511017843772	0.5222840112737397	0.24490875197802964	0.47814019359947635	0.3524428090066668	0.4780118376451588	0.45946278313189287	0.18729240193845662	0.5205036866364309	0.47439541328938484	0.20719016106568444	0.5423642766378174	0.48326542068418854	0.3312768574729157	0.5926534874542003	0.05604780687911898	0.4724842496670457	-0.061934082448627574	-0.0694092110258	0.5207598610125646	0.19117075582130125	-0.07629047071048525	0.3419427626201342	0.43229889786301096	-0.03078538588333509	0.2826464136156844	0.5362821273524865	-0.06522136877203139	0.27908305942839223	0.5470096780956014	-0.08711691642639563	0.31652405569592823	0.5546995850963291
94	1.5666666666666669	0.30326324722137177	0.4927060587233066	0.5225923278627351	0.29747862069618136	0.6301903727449852	0.9663639817710397	0.2584418501214322	0.7392252897911071	1.3806128175970815	0.23916723832061898	0.44662514420521615	1.3639241266950952	0.3116028712275086	0.48196311687213467	1.3758849161762658	0.2370871905955561	0.7977321807759888	1.4281125144305042	0.09220049746724374	0.4969609735728834	0.505865110931857	0.07555282988752159	0.6227239501722829	0.9403837440061036	0.0951730072391129	0.7132923791109932	1.3395792951932222	0.0654636432831429	0.4333763902176696	1.3486898173932946	0.015054087049568118	0.5104698036133862	1.3578595718702673	0.11354791713733142	0.8091872105938342	1.4301567605975363	0.24482745810909007	0.44817718203425316	-0.13794776729012617	0.2682317247555824	0.3616294745741364	-0.38644547333557766	0.2444951640299222	0.31725954356468095	-0.2434939528355054	0.4036073909367342	0.4640003582393665	-0.03238423355765249	0.4630823329032583	0.5226258194010137	0.2448711650249808	0.4776644805157185	0.3518068130200471	0.47791679433806	0.45908003124425323	0.1865200743235531	0.5208469672944142	0.4721873639803783	0.2012437128847115	0.5417331772042613	0.48278750593544223	0.33147615689003995	0.5923839841259977	0.05451519517123625	0.47348146224935184	-0.06190296592609075	-0.06942391969476552	0.5210094551086987	0.1921005989700267	-0.0772079555258827	0.3414008576171637	0.43248909206011016	-0.03005775396248293	0.28079097879188153	0.5359776403268983	-0.06477596557091866	0.2766872575353882	0.547051557883074	-0.08721255190180907	0.31241512812719235	0.5540959991329868
95	1.5833333333333333	0.3031071496113591	0.4926166940417712	0.522636068945031	0.2974957178670464	0.6301789237050335	0.966398467313033	0.25841170007355563	0.7392282546479901	1.3806957457693843	0.23857626766257783	0.4466505180097411	1.3655919317334433	0.3100405687973512	0.4815580342740934	1.3758363943227074	0.2371467224471882	0.7975600432812793	1.4279584164313623	0.09235743869249732	0.5013077612794838	0.5079309531218099	0.07565880110544697	0.622752213905709	0.9404320581767817	0.09670687527560716	0.7179388218282683	1.3399283465832756	0.06520655682209109	0.4336778098822067	1.3497571482326354	0.013074791639540938	0.5142748144696487	1.3596273003520767	0.11460442706600399	0.813684794086944	1.4305026722509293	0.24474276126037167	0.4481291989414669	-0.1383350049855856	0.2669659176953502	0.3622255182275417	-0.38771471336465846	0.24279529961649965	0.3171968445015877	-0.2444723424842972	0.403517262538007	0.4639077297771743	-0.032723488729601194	0.4632243843166679	0.5228496950953756	0.24456305903400916	0.4776253315387426	0.3518509809659506	0.4779504907227776	0.45965035896442746	0.18353599021942907	0.5210492438036207	0.4709446777233754	0.19537471654184108	0.5421025713843775	0.48185024707961416	0.33142132535659524	0.5923120784221275	0.05296072661140546	0.4769624530289677	-0.06187866356639483	-0.06955377163137091	0.5209624352021536	0.19339143619337967	-0.07783346343396627	0.3409841701959911	0.43314801929477337	-0.029855523587353022	0.279206171621711	0.5362058107138991	-0.06472966940138482	0.273271960192614	0.5473887380965109	-0.08745295839337666	0.30939638249875445	0.5545675369570889
